<svg xmlns="http://www.w3.org/2000/svg" viewBox="0 0 52 52" width="52" height="52">
	<style>
		tspan { white-space:pre }
		.shp0 { fill: #c8342d } 
	</style>
	<g id="our services">
		<g id="item4">
			<g id="content">
				<path id="Forma 1" class="shp0" d="M17.67 5.17L34.33 5.17L34.33 6.83L17.67 6.83L17.67 5.17ZM42.25 32.25C42.25 30.64 40.94 29.33 39.33 29.33L37.67 29.33L37.67 17.67L36 17.67L36 29.33L33.92 29.33C32.31 29.33 31 30.64 31 32.25C31 33.07 31.34 33.8 31.88 34.33C31.34 34.86 31 35.6 31 36.42C31 36.98 31.17 37.5 31.44 37.94C30.45 38.41 29.75 39.41 29.75 40.58C29.75 41.03 29.86 41.45 30.04 41.83L23.5 41.83C23.5 39.29 22.22 37.03 20.28 35.67C22.16 34.96 23.5 33.13 23.5 31C23.5 30.54 23.13 30.17 22.67 30.17L16 30.17L16 21.83L14.33 21.83L14.33 30.17C12.95 30.17 11.83 31.29 11.83 32.67L11.83 51L13.5 51L13.5 32.67C13.5 32.21 13.87 31.83 14.33 31.83L21.73 31.83C21.36 33.27 20.05 34.33 18.5 34.33L16 34.33C15.54 34.33 15.17 34.71 15.17 35.17C15.17 35.63 15.54 36 16 36C19.22 36 21.83 38.62 21.83 41.83L21.83 42.67C21.83 43.13 22.21 43.5 22.67 43.5L27.54 43.5C27.36 43.88 27.25 44.3 27.25 44.75C27.25 46.36 28.56 47.67 30.17 47.67L30.17 51L31.83 51L31.83 47.67L35.17 47.67L35.58 47.67C37.19 47.67 38.5 46.36 38.5 44.75C38.5 44.3 38.39 43.87 38.2 43.49C39.75 43.42 41 42.15 41 40.58C41 40.02 40.83 39.5 40.56 39.06C41.55 38.59 42.25 37.59 42.25 36.42C42.25 35.6 41.91 34.86 41.37 34.33C41.91 33.8 42.25 33.07 42.25 32.25ZM35.58 46L35.17 46L31 46L30.17 46C29.48 46 28.92 45.44 28.92 44.75C28.92 44.06 29.48 43.5 30.17 43.5L32.67 43.5L35.58 43.5C36.27 43.5 36.83 44.06 36.83 44.75C36.83 45.44 36.27 46 35.58 46ZM38.08 41.83L35.58 41.83L32.67 41.83C31.98 41.83 31.42 41.27 31.42 40.58C31.42 39.89 31.98 39.33 32.67 39.33L33.92 39.33L38.08 39.33C38.77 39.33 39.33 39.89 39.33 40.58C39.33 41.27 38.77 41.83 38.08 41.83ZM39.33 37.67L38.08 37.67L33.92 37.67C33.23 37.67 32.67 37.11 32.67 36.42C32.67 35.73 33.23 35.17 33.92 35.17L39.33 35.17C40.02 35.17 40.58 35.73 40.58 36.42C40.58 37.11 40.02 37.67 39.33 37.67ZM39.33 33.5L33.92 33.5C33.23 33.5 32.67 32.94 32.67 32.25C32.67 31.56 33.23 31 33.92 31L39.33 31C40.02 31 40.58 31.56 40.58 32.25C40.58 32.94 40.02 33.5 39.33 33.5ZM13.5 11.61C13.48 11.37 13.36 11.15 13.17 11L12.3 10.34C12.1 9.29 11.17 8.5 10.07 8.5C8.83 8.5 7.81 9.51 7.8 10.76C7.13 10.64 6.49 10.39 5.92 10.01L5.63 9.81C5.38 9.64 5.05 9.62 4.78 9.76C4.5 9.91 4.33 10.19 4.33 10.5L4.33 11.18C4.33 12.19 4.64 13.15 5.2 13.95L4.57 14.58C4.34 14.82 4.27 15.18 4.4 15.49C4.53 15.8 4.83 16 5.17 16L9.2 16C10.82 16 12.15 14.77 12.33 13.2L13.26 12.25C13.43 12.08 13.51 11.85 13.5 11.61ZM10.92 12.25C10.77 12.4 10.68 12.61 10.68 12.83C10.68 13.66 10.02 14.33 9.2 14.33L7.08 14.33C7.22 14.03 7.16 13.66 6.91 13.41C6.52 13.02 6.25 12.52 6.1 11.99C6.9 12.33 7.75 12.5 8.63 12.5C9.09 12.5 9.46 12.13 9.46 11.67L9.46 10.79C9.46 10.45 9.74 10.17 10.07 10.17C10.41 10.17 10.68 10.45 10.68 10.79C10.68 11.05 10.8 11.3 11.01 11.46L11.41 11.76L10.92 12.25ZM28.5 15.17L28.5 13.5L26 13.5C25.54 13.5 25.17 13.87 25.17 14.33L25.17 16.83L23.5 16.83L23.5 18.5L25.17 18.5L25.17 21.83L26.83 21.83L26.83 18.5L28.5 18.5L28.5 16.83L26.83 16.83L26.83 15.17L28.5 15.17ZM31 10.17L21 10.17C19.62 10.17 18.5 11.29 18.5 12.67L18.5 22.67C18.5 24.05 19.62 25.17 21 25.17L31 25.17C32.38 25.17 33.5 24.05 33.5 22.67L33.5 12.67C33.5 11.29 32.38 10.17 31 10.17ZM31.83 22.67C31.83 23.13 31.46 23.5 31 23.5L21 23.5C20.54 23.5 20.17 23.13 20.17 22.67L20.17 12.67C20.17 12.21 20.54 11.83 21 11.83L31 11.83C31.46 11.83 31.83 12.21 31.83 12.67L31.83 22.67ZM13.5 5.17L3.5 5.17C2.12 5.17 1 6.29 1 7.67L1 17.67C1 19.04 2.12 20.17 3.5 20.17L13.5 20.17C14.88 20.17 16 19.04 16 17.67L16 7.67C16 6.29 14.88 5.17 13.5 5.17ZM14.33 17.67C14.33 18.13 13.96 18.5 13.5 18.5L3.5 18.5C3.04 18.5 2.67 18.13 2.67 17.67L2.67 7.67C2.67 7.21 3.04 6.83 3.5 6.83L13.5 6.83C13.96 6.83 14.33 7.21 14.33 7.67L14.33 17.67ZM48.5 1L38.5 1C37.12 1 36 2.12 36 3.5L36 13.5C36 14.88 37.12 16 38.5 16L48.5 16C49.88 16 51 14.88 51 13.5L51 3.5C51 2.12 49.88 1 48.5 1ZM49.33 13.5C49.33 13.96 48.96 14.33 48.5 14.33L38.5 14.33C38.04 14.33 37.67 13.96 37.67 13.5L37.67 9.33L39.42 9.33C39.8 11.23 41.49 12.67 43.5 12.67C45.51 12.67 47.2 11.23 47.58 9.33L49.33 9.33L49.33 13.5ZM41 8.5C41 7.12 42.12 6 43.5 6C44.88 6 46 7.12 46 8.5C46 9.88 44.88 11 43.5 11C42.12 11 41 9.88 41 8.5ZM49.33 7.67L47.58 7.67C47.2 5.77 45.51 4.33 43.5 4.33C41.49 4.33 39.8 5.77 39.42 7.67L37.67 7.67L37.67 3.5C37.67 3.04 38.04 2.67 38.5 2.67L48.5 2.67C48.96 2.67 49.33 3.04 49.33 3.5L49.33 7.67ZM25.17 35.17L26.83 35.17L26.83 36.83L25.17 36.83L25.17 35.17Z" />
			</g>
		</g>
	</g>
</svg>