<svg xmlns="http://www.w3.org/2000/svg" viewBox="0 0 56 56" width="56" height="56">
	<style>
		tspan { white-space:pre }
		.shp0 { fill: #c8342d } 
	</style>
	<g id="our services">
		<g id="item3">
			<g id="content">
				<path id="Forma 1" class="shp0" d="M24.83 7.33C15.17 7.33 7.34 15.16 7.34 24.82C7.34 34.49 15.17 42.32 24.83 42.32C34.5 42.32 42.33 34.49 42.33 24.82C42.32 15.16 34.49 7.34 24.83 7.33ZM24.83 8.99C29.98 9 34.8 11.5 37.76 15.72L35.68 17.8C35.17 17.49 34.59 17.33 34 17.32C32.16 17.32 30.67 18.82 30.67 20.66C30.67 21.25 30.83 21.83 31.14 22.34L25.68 27.8C24.65 27.17 23.35 27.17 22.32 27.8L18.53 24.01C18.84 23.5 19 22.92 19 22.32C19 20.49 17.52 19 15.68 18.99C14.16 18.99 12.83 20.02 12.46 21.49L9.37 21.49C10.94 14.21 17.38 9 24.83 8.99ZM35.66 20.66C35.66 21.58 34.92 22.32 34 22.32C33.08 22.32 32.33 21.58 32.33 20.66C32.33 19.74 33.08 18.99 34 18.99C34.92 18.99 35.66 19.74 35.66 20.66ZM25.67 30.66C25.67 31.58 24.92 32.32 24 32.32C23.08 32.32 22.33 31.58 22.33 30.66C22.33 29.74 23.08 28.99 24 28.99C24.92 28.99 25.67 29.74 25.67 30.66ZM17.34 22.32C17.34 23.25 16.59 23.99 15.67 23.99C14.75 23.99 14 23.25 14 22.32C14 21.4 14.75 20.66 15.67 20.66C16.59 20.66 17.34 21.4 17.34 22.32ZM32.52 38.67C30.17 39.98 27.52 40.66 24.83 40.66C16.1 40.66 9.01 33.58 9.01 24.85C9.01 24.28 9.03 23.72 9.09 23.16L12.46 23.16C12.83 24.63 14.16 25.65 15.67 25.66C16.26 25.65 16.84 25.49 17.35 25.19L21.14 28.98C20.83 29.48 20.67 30.06 20.67 30.66C20.67 32.5 22.16 33.99 24 33.99C25.84 33.99 27.33 32.5 27.33 30.66C27.33 30.06 27.17 29.48 26.86 28.98L32.32 23.52C32.82 23.82 33.4 23.99 34 23.99C35.84 23.99 37.33 22.5 37.33 20.66C37.33 20.06 37.16 19.48 36.86 18.98L38.67 17.16C42.91 24.8 40.16 34.43 32.52 38.67ZM45.66 12.32C47.17 12.32 48.5 11.29 48.87 9.83L53.99 9.83L53.99 8.16L48.87 8.16C48.5 6.69 47.17 5.66 45.66 5.66C43.82 5.66 42.33 7.15 42.33 8.99C42.33 9.58 42.49 10.17 42.8 10.67L41.34 12.14C34.33 3.01 21.26 1.29 12.13 8.3C3.01 15.3 1.29 28.38 8.29 37.51C14.91 46.12 27.02 48.21 36.14 42.31L38.65 44.82L39.83 46L46.53 52.71C48.24 54.42 51.01 54.42 52.71 52.71C54.42 51 54.42 48.24 52.71 46.53L46 39.82L44.83 38.65L42.31 36.13C46.78 29.25 46.78 20.39 42.31 13.52L43.98 11.85C44.49 12.16 45.07 12.32 45.66 12.32ZM45.66 7.33C46.58 7.33 47.33 8.07 47.33 8.99C47.33 9.91 46.58 10.66 45.66 10.66C44.74 10.66 43.99 9.91 43.99 8.99C43.99 8.07 44.74 7.33 45.66 7.33ZM51.53 47.71C52.6 48.75 52.62 50.46 51.58 51.53C50.53 52.6 48.82 52.62 47.76 51.58C47.74 51.56 47.73 51.55 47.71 51.53L41.01 44.82L44.83 41L51.53 47.71ZM43.65 39.82L39.83 43.65L37.52 41.34C37.64 41.25 37.75 41.15 37.87 41.06C37.98 40.96 38.12 40.85 38.24 40.75C38.42 40.6 38.6 40.44 38.78 40.28C38.87 40.2 38.96 40.12 39.05 40.03C39.39 39.71 39.72 39.38 40.04 39.04C40.12 38.95 40.2 38.86 40.29 38.77C40.45 38.6 40.6 38.42 40.76 38.23C40.86 38.11 40.96 37.99 41.06 37.86C41.15 37.74 41.25 37.63 41.34 37.52L43.65 39.82ZM40.42 35.95C40.16 36.32 39.89 36.68 39.6 37.02C39.52 37.13 39.43 37.22 39.34 37.32C39.09 37.62 38.82 37.91 38.55 38.19C38.43 38.31 38.31 38.43 38.19 38.55C37.91 38.82 37.63 39.08 37.33 39.34C37.23 39.42 37.13 39.51 37.03 39.59C36.68 39.88 36.33 40.15 35.96 40.41C27.34 46.58 15.35 44.58 9.19 35.95C3.03 27.33 5.02 15.34 13.65 9.17C22.27 3.01 34.26 5.01 40.42 13.64C45.19 20.31 45.19 29.28 40.42 35.95Z" />
			</g>
		</g>
	</g>
</svg>