<svg xmlns="http://www.w3.org/2000/svg" viewBox="0 0 52 52" width="52" height="52">
	<style>
		tspan { white-space:pre }
		.shp0 { fill: #2d3f51 } 
	</style>
	<g id="our services">
		<g id="item2">
			<g id="content">
				<path id="Shape 1" class="shp0" d="M6.83 44.33C3.62 44.33 1 46.95 1 50.17C1 50.63 1.37 51 1.83 51L11.83 51C12.29 51 12.67 50.63 12.67 50.17C12.67 46.95 10.05 44.33 6.83 44.33ZM2.75 49.33C3.08 47.7 4.37 46.42 6 46.09L6 47.67L7.67 47.67L7.67 46.09C9.3 46.42 10.58 47.7 10.92 49.33L2.75 49.33ZM50.17 36.83L48.7 36.83C48.66 36.72 48.61 36.6 48.56 36.49L49.59 35.45C49.92 35.13 49.92 34.6 49.59 34.27L46.06 30.74C45.89 30.57 45.66 30.49 45.43 30.5C46.75 29.8 47.67 28.43 47.67 26.83L47.67 5.17C47.67 2.87 45.8 1 43.5 1L5.17 1C2.87 1 1 2.87 1 5.17L1 26.83C1 29.13 2.87 31 5.17 31L16.04 31L12.89 36.83L12.67 36.83L11.42 36.83C9.81 36.83 8.5 38.14 8.5 39.75C8.5 41.36 9.81 42.67 11.42 42.67L29.33 42.67C29.33 43.13 29.71 43.5 30.17 43.5L31.63 43.5C31.67 43.62 31.72 43.73 31.77 43.85L30.74 44.88C30.41 45.21 30.41 45.73 30.74 46.06L34.27 49.59C34.6 49.92 35.13 49.92 35.45 49.59L36.49 48.56C36.6 48.61 36.72 48.66 36.83 48.7L36.83 50.17C36.83 50.63 37.21 51 37.67 51L42.67 51C43.13 51 43.5 50.63 43.5 50.17L43.5 48.7C43.62 48.66 43.73 48.61 43.85 48.56L44.88 49.59C45.21 49.92 45.73 49.92 46.06 49.59L49.59 46.06C49.92 45.73 49.92 45.21 49.59 44.88L48.56 43.85C48.61 43.73 48.66 43.62 48.7 43.5L50.17 43.5C50.63 43.5 51 43.13 51 42.67L51 37.67C51 37.21 50.63 36.83 50.17 36.83ZM2.67 5.17C2.67 3.79 3.79 2.67 5.17 2.67L43.5 2.67C44.88 2.67 46 3.79 46 5.17L46 22.67L2.67 22.67L2.67 5.17ZM5.17 29.33C3.79 29.33 2.67 28.21 2.67 26.83L2.67 24.33L46 24.33L46 26.83C46 28.21 44.88 29.33 43.5 29.33L42.67 29.33L37.67 29.33L31.23 29.33L17.44 29.33L5.17 29.33ZM44.87 30.75L43.85 31.77C43.73 31.72 43.62 31.67 43.5 31.63L43.5 31C43.98 31 44.44 30.9 44.87 30.75ZM36.83 31L36.83 31.63C36.72 31.67 36.6 31.72 36.49 31.77L35.71 31L36.83 31ZM34.01 31L33.29 31.72L32.8 31L34.01 31ZM29.33 41L11.42 41C10.73 41 10.17 40.44 10.17 39.75C10.17 39.06 10.73 38.5 11.42 38.5L12.67 38.5L13.39 38.5L29.33 38.5L29.33 41ZM14.79 36.83L17.93 31L30.79 31L32.09 32.92L30.74 34.27C30.41 34.6 30.41 35.13 30.74 35.45L31.77 36.49C31.72 36.6 31.67 36.72 31.63 36.83L30.17 36.83L14.79 36.83ZM49.33 41.83L48.12 41.83C47.75 41.83 47.43 42.07 47.32 42.42C47.2 42.82 47.02 43.23 46.81 43.63C46.65 43.95 46.71 44.35 46.96 44.61L47.83 45.47L45.47 47.83L44.61 46.96C44.35 46.71 43.96 46.65 43.63 46.81C43.23 47.02 42.82 47.19 42.42 47.32C42.07 47.43 41.83 47.75 41.83 48.12L41.83 49.33L38.5 49.33L38.5 48.12C38.5 47.75 38.26 47.43 37.92 47.32C37.51 47.2 37.1 47.02 36.7 46.81C36.38 46.65 35.98 46.71 35.73 46.96L34.86 47.83L32.51 45.47L33.37 44.61C33.63 44.35 33.69 43.96 33.52 43.63C33.31 43.23 33.14 42.82 33.01 42.42C32.9 42.07 32.58 41.83 32.22 41.83L31 41.83L31 38.5L32.22 38.5C32.58 38.5 32.9 38.26 33.01 37.92C33.14 37.51 33.31 37.1 33.52 36.7C33.69 36.38 33.63 35.98 33.37 35.73L32.51 34.86L34.86 32.51L35.73 33.37C35.98 33.63 36.38 33.69 36.7 33.52C37.1 33.31 37.51 33.14 37.92 33.01C38.26 32.9 38.5 32.58 38.5 32.22L38.5 31L41.83 31L41.83 32.22C41.83 32.58 42.07 32.9 42.42 33.01C42.82 33.14 43.23 33.31 43.63 33.52C43.95 33.69 44.35 33.63 44.61 33.37L45.47 32.51L47.83 34.86L46.96 35.73C46.71 35.98 46.64 36.38 46.81 36.7C47.02 37.1 47.19 37.51 47.32 37.92C47.43 38.26 47.75 38.5 48.12 38.5L49.33 38.5L49.33 41.83ZM40.17 35.17C37.41 35.17 35.17 37.41 35.17 40.17C35.17 42.92 37.41 45.17 40.17 45.17C42.92 45.17 45.17 42.92 45.17 40.17C45.17 37.41 42.92 35.17 40.17 35.17ZM40.17 43.5C38.33 43.5 36.83 42 36.83 40.17C36.83 38.33 38.33 36.83 40.17 36.83C42 36.83 43.5 38.33 43.5 40.17C43.5 42 42 43.5 40.17 43.5ZM17.42 7.42L16.24 6.24L10.41 12.08C10.08 12.4 10.08 12.93 10.41 13.26L16.24 19.09L17.42 17.91L12.18 12.67L17.42 7.42ZM35.76 12.08L29.92 6.24L28.74 7.42L33.99 12.67L28.74 17.91L29.92 19.09L35.76 13.26C36.08 12.93 36.08 12.4 35.76 12.08ZM18.59 18.96L26.08 3.97L27.58 4.71L20.08 19.71L18.59 18.96ZM33.5 17.67L35.17 17.67L35.17 19.33L33.5 19.33L33.5 17.67ZM36.83 17.67L38.5 17.67L38.5 19.33L36.83 19.33L36.83 17.67ZM40.17 17.67L41.83 17.67L41.83 19.33L40.17 19.33L40.17 17.67Z" />
			</g>
		</g>
	</g>
</svg>