<svg xmlns="http://www.w3.org/2000/svg" viewBox="0 0 52 60" width="52" height="60">
	<style>
		tspan { white-space:pre }
		.shp0 { fill: #c8342d } 
	</style>
	<g id="our services">
		<g id="item1">
			<g id="content">
				<path id="Shape 1" class="shp0" d="M42.35 17.43C42.35 8.37 35.01 1 26 1C16.99 1 9.65 8.37 9.65 17.43C9.65 22.21 11.76 26.75 15.34 29.86C14.8 30.39 14.46 31.12 14.46 31.93C14.46 32.68 14.75 33.35 15.21 33.87C14.75 34.38 14.46 35.05 14.46 35.8C14.46 36.55 14.75 37.22 15.21 37.73C14.75 38.25 14.46 38.92 14.46 39.67C14.46 40.93 15.27 41.99 16.38 42.39L16.38 49.33C16.38 49.59 16.49 49.84 16.67 50.01L16.67 50.02L25.32 58.72C25.51 58.91 25.75 59 26 59C26.25 59 26.49 58.91 26.68 58.72L35.33 50.02L35.33 50.01C35.51 49.84 35.62 49.59 35.62 49.33L35.62 42.39C36.73 41.99 37.54 40.93 37.54 39.67C37.54 38.92 37.25 38.25 36.79 37.73C37.25 37.22 37.54 36.55 37.54 35.8C37.54 35.05 37.25 34.38 36.79 33.87C37.25 33.35 37.54 32.68 37.54 31.93C37.54 31.12 37.2 30.39 36.66 29.86C40.24 26.75 42.35 22.21 42.35 17.43ZM26 56.67L24.47 55.13L27.52 55.13L26 56.67ZM29.45 53.2L22.55 53.2L18.86 49.48L20.23 48.56L22.58 50.14C22.9 50.35 23.32 50.35 23.65 50.14L26 48.56L28.35 50.14C28.67 50.35 29.09 50.35 29.42 50.14L31.77 48.56L33.14 49.48L29.45 53.2ZM33.69 47.53L32.3 46.6C31.98 46.38 31.56 46.38 31.24 46.6L28.88 48.17L26.53 46.6C26.21 46.38 25.79 46.38 25.47 46.6L23.12 48.17L20.76 46.6C20.44 46.38 20.02 46.38 19.7 46.6L18.31 47.53L18.31 42.57L33.69 42.57L33.69 47.53ZM34.65 40.63L17.35 40.63C16.82 40.63 16.38 40.2 16.38 39.67C16.38 39.13 16.82 38.7 17.35 38.7L34.65 38.7C35.18 38.7 35.62 39.13 35.62 39.67C35.62 40.2 35.18 40.63 34.65 40.63ZM34.65 36.77L17.35 36.77C16.82 36.77 16.38 36.33 16.38 35.8C16.38 35.27 16.82 34.83 17.35 34.83L34.65 34.83C35.18 34.83 35.62 35.27 35.62 35.8C35.62 36.33 35.18 36.77 34.65 36.77ZM34.65 32.9L17.35 32.9C16.82 32.9 16.38 32.47 16.38 31.93C16.38 31.4 16.82 30.97 17.35 30.97L34.65 30.97L34.66 30.97C35.19 30.97 35.62 31.4 35.62 31.93C35.62 32.47 35.18 32.9 34.65 32.9ZM22.99 18.28C23.17 18.42 23.38 18.5 23.6 18.5C23.81 18.5 24.02 18.42 24.2 18.28C25.34 17.35 26 15.99 26 14.53C26 14.31 25.98 14.09 25.95 13.87C25.94 13.81 25.93 13.75 25.92 13.68C25.89 13.52 25.85 13.35 25.8 13.19C25.79 13.14 25.77 13.08 25.75 13.03C25.69 12.83 25.61 12.62 25.51 12.43C25.49 12.39 25.47 12.36 25.45 12.33C25.37 12.16 25.28 12.01 25.17 11.86C25.16 11.83 25.15 11.8 25.13 11.78C25.69 11.59 26.31 11.59 26.87 11.78C26.86 11.8 26.84 11.83 26.83 11.86C26.72 12.01 26.63 12.16 26.55 12.33C26.53 12.36 26.51 12.39 26.49 12.43C26.4 12.62 26.31 12.83 26.25 13.03C26.23 13.08 26.22 13.14 26.2 13.19C26.15 13.35 26.12 13.52 26.08 13.68C26.07 13.75 26.06 13.81 26.05 13.87C26.02 14.09 26 14.31 26 14.53C26 15.99 26.66 17.35 27.8 18.28C27.98 18.42 28.19 18.5 28.4 18.5C28.62 18.5 28.83 18.42 29.01 18.28C30.15 17.35 30.81 15.99 30.81 14.53C30.81 14.31 30.79 14.09 30.76 13.87C30.75 13.81 30.74 13.75 30.72 13.68C30.7 13.52 30.66 13.35 30.61 13.19C30.59 13.14 30.58 13.08 30.56 13.03C30.49 12.83 30.41 12.62 30.32 12.43C30.3 12.39 30.28 12.36 30.26 12.32C30.18 12.16 30.08 12.01 29.98 11.86C29.97 11.83 29.95 11.8 29.93 11.78C30.22 11.68 30.51 11.63 30.81 11.63C32.34 11.63 33.69 13.09 33.69 14.74C33.69 16.16 33.07 17.5 31.98 18.41L28.27 21.52C28.05 21.71 27.92 21.98 27.92 22.27L27.92 29.03L24.08 29.03L24.08 22.27C24.08 21.98 23.95 21.71 23.73 21.52L20.02 18.41C18.93 17.5 18.31 16.16 18.31 14.74C18.31 13.09 19.66 11.63 21.19 11.63C21.49 11.63 21.78 11.68 22.07 11.78C22.05 11.8 22.03 11.83 22.01 11.86C21.91 12.01 21.82 12.16 21.74 12.32C21.72 12.36 21.7 12.39 21.68 12.43C21.59 12.62 21.51 12.83 21.44 13.03C21.42 13.08 21.41 13.14 21.39 13.19C21.34 13.35 21.3 13.52 21.27 13.68C21.26 13.75 21.25 13.81 21.24 13.87C21.21 14.09 21.19 14.31 21.19 14.53C21.19 15.99 21.85 17.35 22.99 18.28ZM23.12 14.53C23.12 14.34 23.14 14.15 23.18 13.97C23.19 13.92 23.2 13.88 23.21 13.83C23.26 13.65 23.32 13.47 23.4 13.31C23.4 13.29 23.41 13.28 23.42 13.27C23.47 13.17 23.53 13.08 23.6 12.98C23.66 13.08 23.72 13.17 23.77 13.27C23.78 13.28 23.79 13.29 23.8 13.3C23.88 13.47 23.94 13.65 23.98 13.83C23.99 13.88 24 13.92 24.01 13.97C24.05 14.15 24.08 14.34 24.08 14.53C24.08 14.73 24.05 14.91 24.01 15.1C24 15.14 23.99 15.19 23.98 15.23C23.94 15.41 23.88 15.59 23.8 15.76C23.79 15.77 23.78 15.79 23.77 15.8C23.72 15.9 23.66 15.99 23.6 16.08C23.53 15.99 23.47 15.9 23.42 15.8C23.41 15.79 23.4 15.77 23.4 15.76C23.32 15.59 23.26 15.41 23.21 15.23C23.2 15.19 23.19 15.14 23.18 15.1C23.14 14.91 23.12 14.73 23.12 14.53ZM27.92 14.53C27.92 14.34 27.95 14.15 27.99 13.97C28 13.92 28.01 13.88 28.02 13.83C28.06 13.65 28.12 13.47 28.2 13.31C28.21 13.29 28.22 13.28 28.22 13.27C28.27 13.17 28.34 13.08 28.4 12.98C28.47 13.08 28.53 13.17 28.58 13.27C28.59 13.28 28.6 13.29 28.6 13.3C28.68 13.47 28.74 13.65 28.79 13.83C28.8 13.88 28.81 13.92 28.82 13.97C28.86 14.15 28.88 14.34 28.88 14.53C28.88 14.73 28.86 14.91 28.82 15.1C28.81 15.14 28.8 15.19 28.79 15.23C28.74 15.41 28.68 15.59 28.6 15.76C28.6 15.77 28.59 15.79 28.58 15.8C28.53 15.9 28.47 15.99 28.4 16.08C28.34 15.99 28.27 15.9 28.22 15.8C28.22 15.79 28.21 15.77 28.2 15.76C28.12 15.59 28.06 15.41 28.02 15.23C28.01 15.19 28 15.14 27.99 15.1C27.95 14.91 27.92 14.73 27.92 14.53ZM34.63 29.03L29.85 29.03L29.85 22.72L33.21 19.9C34.74 18.62 35.62 16.74 35.62 14.74C35.62 12.01 33.41 9.7 30.81 9.7C29.95 9.7 29.14 9.94 28.4 10.37C26.92 9.51 25.08 9.51 23.6 10.37C22.86 9.94 22.05 9.7 21.19 9.7C18.59 9.7 16.38 12.01 16.38 14.74C16.38 16.74 17.26 18.62 18.79 19.9L22.15 22.72L22.15 29.03L17.37 29.03C13.74 26.3 11.58 21.99 11.58 17.43C11.58 9.44 18.05 2.93 26 2.93C33.95 2.93 40.42 9.44 40.42 17.43C40.42 21.99 38.26 26.3 34.63 29.03ZM40.7 5.15L44.55 1.28L45.91 2.65L42.06 6.52L40.7 5.15ZM40.7 29.71L42.06 28.35L45.91 32.21L44.55 33.58L40.7 29.71ZM45.23 16.47L51 16.47L51 18.4L45.23 18.4L45.23 16.47ZM6.09 2.65L7.45 1.28L11.3 5.15L9.94 6.52L6.09 2.65ZM6.09 32.22L9.94 28.35L11.3 29.72L7.45 33.58L6.09 32.22ZM1 16.47L6.77 16.47L6.77 18.4L1 18.4L1 16.47ZM37.54 47.4L39.46 47.4L39.46 49.33L37.54 49.33L37.54 47.4ZM41.38 47.4L43.31 47.4L43.31 49.33L41.38 49.33L41.38 47.4ZM45.23 47.4L47.15 47.4L47.15 49.33L45.23 49.33L45.23 47.4ZM4.85 47.4L6.77 47.4L6.77 49.33L4.85 49.33L4.85 47.4ZM8.69 47.4L10.62 47.4L10.62 49.33L8.69 49.33L8.69 47.4ZM12.54 47.4L14.46 47.4L14.46 49.33L12.54 49.33L12.54 47.4Z" />
			</g>
		</g>
	</g>
</svg>