<svg xmlns="http://www.w3.org/2000/svg" viewBox="0 0 52 52" width="52" height="52">
	<style>
		tspan { white-space:pre }
		.shp0 { fill: #c8342d } 
	</style>
	<g id="our services">
		<g id="item6">
			<g id="content">
				<path id="Forma 1" class="shp0" d="M9.75 6.02C7.68 6.02 6 7.71 6 9.79C6 11.86 7.68 13.55 9.75 13.55C11.82 13.55 13.5 11.86 13.5 9.79C13.5 7.71 11.82 6.02 9.75 6.02ZM9.75 11.88C8.6 11.88 7.67 10.94 7.67 9.79C7.67 8.63 8.6 7.7 9.75 7.7C10.9 7.7 11.83 8.63 11.83 9.79C11.83 10.94 10.9 11.88 9.75 11.88ZM42.67 7.7C43.13 7.7 43.5 8.07 43.5 8.53C43.5 9 43.13 9.37 42.67 9.37C42.21 9.37 41.83 9 41.83 8.53C41.83 8.07 42.21 7.7 42.67 7.7ZM39.33 7.7C39.79 7.7 40.17 8.07 40.17 8.53C40.17 9 39.79 9.37 39.33 9.37C38.87 9.37 38.5 9 38.5 8.53C38.5 8.07 38.87 7.7 39.33 7.7ZM44.33 10.21C44.79 10.21 45.17 10.58 45.17 11.04C45.17 11.51 44.79 11.88 44.33 11.88C43.87 11.88 43.5 11.51 43.5 11.04C43.5 10.58 43.87 10.21 44.33 10.21ZM41 10.21C41.46 10.21 41.83 10.58 41.83 11.04C41.83 11.51 41.46 11.88 41 11.88C40.54 11.88 40.17 11.51 40.17 11.04C40.17 10.58 40.54 10.21 41 10.21ZM36 7.7C36.46 7.7 36.83 8.07 36.83 8.53C36.83 9 36.46 9.37 36 9.37C35.54 9.37 35.17 9 35.17 8.53C35.17 8.07 35.54 7.7 36 7.7ZM37.67 10.21C38.13 10.21 38.5 10.58 38.5 11.04C38.5 11.51 38.13 11.88 37.67 11.88C37.21 11.88 36.83 11.51 36.83 11.04C36.83 10.58 37.21 10.21 37.67 10.21ZM32.67 7.7C33.13 7.7 33.5 8.07 33.5 8.53C33.5 9 33.13 9.37 32.67 9.37C32.21 9.37 31.83 9 31.83 8.53C31.83 8.07 32.21 7.7 32.67 7.7ZM34.33 10.21C34.79 10.21 35.17 10.58 35.17 11.04C35.17 11.51 34.79 11.88 34.33 11.88C33.87 11.88 33.5 11.51 33.5 11.04C33.5 10.58 33.87 10.21 34.33 10.21ZM29.33 7.7C29.79 7.7 30.17 8.07 30.17 8.53C30.17 9 29.79 9.37 29.33 9.37C28.87 9.37 28.5 9 28.5 8.53C28.5 8.07 28.87 7.7 29.33 7.7ZM31 10.21C31.46 10.21 31.83 10.58 31.83 11.04C31.83 11.51 31.46 11.88 31 11.88C30.54 11.88 30.17 11.51 30.17 11.04C30.17 10.58 30.54 10.21 31 10.21ZM9.75 21.92C7.68 21.92 6 23.61 6 25.69C6 27.76 7.68 29.45 9.75 29.45C11.82 29.45 13.5 27.76 13.5 25.69C13.5 23.61 11.82 21.92 9.75 21.92ZM9.75 27.78C8.6 27.78 7.67 26.84 7.67 25.69C7.67 24.53 8.6 23.59 9.75 23.59C10.9 23.59 11.83 24.53 11.83 25.69C11.83 26.84 10.9 27.78 9.75 27.78ZM9.75 37.82C7.68 37.82 6 39.51 6 41.58C6 43.66 7.68 45.35 9.75 45.35C11.82 45.35 13.5 43.66 13.5 41.58C13.5 39.51 11.82 37.82 9.75 37.82ZM9.75 43.68C8.6 43.68 7.67 42.74 7.67 41.58C7.67 40.43 8.6 39.49 9.75 39.49C10.9 39.49 11.83 40.43 11.83 41.58C11.83 42.74 10.9 43.68 9.75 43.68ZM51 14.72L51 4.86C51 2.73 49.28 1 47.16 1L4.84 1C2.72 1 1 2.73 1 4.86L1 14.72C1 15.95 1.59 17.03 2.48 17.74C1.59 18.44 1 19.53 1 20.76L1 30.61C1 31.84 1.59 32.93 2.48 33.63C1.59 34.34 1 35.43 1 36.65L1 46.51C1 48.64 2.72 50.37 4.84 50.37L28.07 50.37C30.3 50.78 32.75 51 35.17 51C42.39 51 50.01 49.11 50.91 45.51C50.97 45.4 51 45.27 51 45.14L51 37.61L51 37.3L51 36.98L51 30.08L51 29.77L51 29.45L51 22.23L51 21.92C51 21.8 50.97 21.68 50.92 21.57C50.63 20.35 49.55 19.32 47.95 18.49C49.69 18.12 51 16.57 51 14.72ZM2.67 30.62L2.67 20.76C2.67 19.55 3.64 18.57 4.84 18.57L22.22 18.57C20.72 19.39 19.69 20.39 19.41 21.57C19.36 21.68 19.33 21.8 19.33 21.92L19.33 22.23L19.33 29.45L19.33 29.77L19.33 30.08L19.33 32.8L4.84 32.8C3.64 32.8 2.67 31.82 2.67 30.62ZM21.52 25.48C21.56 25.51 21.6 25.53 21.64 25.55C21.78 25.65 21.94 25.74 22.1 25.83C22.14 25.85 22.19 25.88 22.23 25.9C22.43 26 22.63 26.11 22.84 26.2C22.87 26.22 22.91 26.24 22.94 26.25C23.12 26.34 23.31 26.42 23.51 26.5C23.57 26.52 23.62 26.54 23.68 26.57C23.91 26.66 24.14 26.74 24.39 26.83C24.4 26.83 24.41 26.84 24.43 26.84C24.66 26.92 24.9 27 25.14 27.07C25.2 27.09 25.27 27.11 25.34 27.13C25.58 27.2 25.82 27.27 26.07 27.33C26.09 27.34 26.11 27.34 26.13 27.35C26.4 27.42 26.67 27.48 26.95 27.55C27.02 27.56 27.09 27.58 27.16 27.59C27.4 27.64 27.64 27.69 27.88 27.74C27.93 27.75 27.98 27.76 28.03 27.77C28.31 27.82 28.6 27.87 28.89 27.92C28.96 27.93 29.03 27.94 29.1 27.95C29.35 27.99 29.59 28.02 29.84 28.06C29.9 28.07 29.97 28.07 30.04 28.08C30.34 28.12 30.64 28.16 30.94 28.19C31 28.19 31.06 28.2 31.12 28.21C31.38 28.23 31.63 28.25 31.89 28.27C31.97 28.28 32.04 28.29 32.12 28.29C32.43 28.32 32.73 28.33 33.04 28.35C33.08 28.35 33.13 28.35 33.17 28.36C33.44 28.37 33.72 28.38 33.99 28.39C34.07 28.39 34.15 28.39 34.23 28.39C34.54 28.4 34.85 28.41 35.16 28.41C35.47 28.41 35.79 28.4 36.1 28.39C36.18 28.39 36.26 28.39 36.34 28.39C36.61 28.38 36.88 28.37 37.16 28.36C37.2 28.35 37.24 28.35 37.29 28.35C37.6 28.33 37.9 28.32 38.21 28.29C38.29 28.29 38.36 28.28 38.44 28.27C38.7 28.25 38.95 28.23 39.21 28.21C39.27 28.2 39.33 28.19 39.39 28.19C39.69 28.16 39.99 28.12 40.29 28.08C40.36 28.07 40.43 28.07 40.49 28.06C40.74 28.02 40.98 27.99 41.23 27.95C41.3 27.94 41.37 27.93 41.44 27.92C41.73 27.87 42.02 27.82 42.3 27.77C42.35 27.76 42.4 27.75 42.45 27.74C42.69 27.69 42.93 27.64 43.17 27.59C43.24 27.58 43.31 27.56 43.38 27.55C43.66 27.48 43.93 27.42 44.2 27.35C44.22 27.34 44.24 27.34 44.26 27.33C44.51 27.27 44.75 27.2 44.99 27.13C45.06 27.11 45.13 27.09 45.19 27.07C45.43 27 45.67 26.92 45.9 26.84C45.92 26.84 45.93 26.83 45.94 26.83C46.19 26.74 46.42 26.66 46.65 26.57C46.71 26.54 46.76 26.52 46.82 26.5C47.02 26.42 47.21 26.34 47.39 26.25C47.42 26.23 47.46 26.22 47.49 26.2C47.7 26.11 47.9 26 48.1 25.9C48.14 25.88 48.19 25.85 48.23 25.83C48.39 25.74 48.54 25.65 48.69 25.55C48.73 25.53 48.77 25.51 48.81 25.48C48.98 25.37 49.14 25.25 49.3 25.13C49.31 25.13 49.32 25.12 49.33 25.11L49.33 29.29C49.31 29.38 49.3 29.48 49.31 29.58C49.32 29.64 49.33 29.7 49.33 29.77C49.33 29.86 49.31 29.95 49.28 30.04C49.27 30.12 49.24 30.19 49.21 30.26C49.19 30.32 49.15 30.39 49.12 30.45C49.08 30.51 49.04 30.58 49 30.64C48.93 30.73 48.86 30.81 48.78 30.9C48.75 30.93 48.72 30.97 48.68 31C46.92 32.71 41.71 34.26 35.17 34.26C28.62 34.26 23.42 32.72 21.65 31C21.62 30.97 21.58 30.93 21.55 30.89C21.47 30.81 21.4 30.73 21.34 30.64C21.29 30.58 21.25 30.51 21.21 30.44C21.18 30.38 21.15 30.32 21.12 30.26C21.09 30.19 21.07 30.11 21.05 30.04C21.03 29.95 21 29.86 21 29.77C21 29.71 21.01 29.65 21.02 29.59C21.03 29.48 21.02 29.37 21 29.27L21 25.11C21.01 25.12 21.02 25.13 21.03 25.13C21.19 25.25 21.35 25.37 21.52 25.48ZM49.21 37.79C49.19 37.85 49.15 37.92 49.12 37.98C49.08 38.04 49.04 38.11 49 38.17C48.93 38.26 48.86 38.34 48.78 38.43C48.75 38.46 48.72 38.5 48.68 38.53C46.92 40.24 41.71 41.79 35.17 41.79C28.62 41.79 23.42 40.25 21.65 38.53C21.62 38.5 21.58 38.46 21.55 38.42C21.47 38.34 21.4 38.26 21.34 38.17C21.29 38.11 21.25 38.04 21.21 37.97C21.18 37.91 21.15 37.85 21.12 37.79C21.09 37.72 21.07 37.64 21.05 37.57C21.03 37.49 21.01 37.41 21.01 37.33L21.01 37.23C21.01 37.19 21.01 37.15 21.02 37.12C21.03 37.05 21.01 36.97 21 36.9L21 32.8L21 32.64C21.03 32.67 21.07 32.69 21.11 32.72C21.21 32.8 21.32 32.87 21.43 32.95C21.53 33.01 21.62 33.07 21.72 33.13C21.87 33.22 22.02 33.31 22.18 33.4C22.18 33.4 22.18 33.4 22.18 33.4C23.92 34.36 26.31 35.04 28.95 35.46C28.97 35.46 28.99 35.46 29.01 35.47C29.86 35.6 30.74 35.7 31.63 35.78C31.82 35.8 32.01 35.81 32.2 35.83C32.38 35.84 32.57 35.85 32.76 35.86C33.01 35.88 33.26 35.89 33.51 35.9C33.66 35.9 33.8 35.91 33.95 35.92C34.36 35.93 34.76 35.94 35.17 35.94C35.57 35.94 35.98 35.93 36.38 35.92C36.53 35.91 36.68 35.91 36.82 35.9C37.07 35.89 37.32 35.88 37.57 35.86C37.76 35.85 37.95 35.84 38.14 35.83C38.32 35.81 38.51 35.8 38.69 35.78C39.59 35.71 40.48 35.6 41.34 35.47C41.35 35.47 41.36 35.46 41.37 35.46C44.26 35.01 46.84 34.23 48.61 33.14C48.7 33.08 48.8 33.02 48.89 32.96C49 32.88 49.11 32.8 49.22 32.73C49.25 32.7 49.3 32.67 49.33 32.64L49.33 36.82C49.31 36.91 49.3 37.01 49.32 37.11C49.32 37.17 49.33 37.23 49.33 37.3C49.33 37.39 49.31 37.48 49.28 37.57C49.27 37.65 49.24 37.72 49.21 37.79ZM4.84 48.7C3.64 48.7 2.67 47.72 2.67 46.51L2.67 36.65C2.67 35.45 3.64 34.47 4.84 34.47L19.33 34.47L19.33 36.98L19.33 37.3L19.33 37.61L19.33 45.14L19.33 45.98L19.58 45.98C19.59 46.01 19.61 46.04 19.63 46.07C19.66 46.13 19.69 46.19 19.72 46.25C19.79 46.38 19.87 46.5 19.95 46.62C20.04 46.74 20.13 46.86 20.24 46.98C20.29 47.03 20.34 47.09 20.4 47.15C20.71 47.48 21.1 47.79 21.54 48.08C21.56 48.09 21.57 48.1 21.59 48.11C21.91 48.32 22.25 48.51 22.63 48.7L4.84 48.7L4.84 48.7ZM49.33 44.93C49.33 44.95 49.32 44.98 49.32 45C48.98 47.09 43.21 49.32 35.17 49.32C32.6 49.32 30.27 49.09 28.27 48.72L28.27 48.71C24.13 47.92 21.83 46.59 21.19 45.47C21.19 45.47 21.19 45.47 21.19 45.47C21.16 45.42 21.14 45.37 21.12 45.32C21.07 45.21 21.03 45.11 21.02 45L21.01 40.18C21.04 40.2 21.08 40.23 21.11 40.25C21.21 40.33 21.32 40.4 21.43 40.48C21.53 40.54 21.62 40.6 21.72 40.66C21.87 40.75 22.02 40.85 22.18 40.93C22.18 40.93 22.18 40.94 22.18 40.94C23.92 41.89 26.31 42.57 28.95 42.99C28.97 42.99 28.99 43 29.01 43C29.86 43.13 30.74 43.24 31.63 43.31C31.82 43.33 32.01 43.35 32.2 43.36C32.38 43.37 32.57 43.38 32.76 43.39C33.01 43.41 33.26 43.42 33.51 43.43C33.66 43.44 33.8 43.44 33.95 43.45C34.36 43.46 34.76 43.47 35.17 43.47C35.57 43.47 35.97 43.46 36.38 43.45C36.53 43.44 36.67 43.44 36.82 43.43C37.07 43.42 37.32 43.41 37.57 43.4C37.76 43.38 37.95 43.37 38.13 43.36C38.32 43.35 38.51 43.33 38.69 43.31C39.59 43.24 40.48 43.13 41.34 43C41.35 43 41.36 42.99 41.37 42.99C44.26 42.54 46.84 41.76 48.61 40.67C48.7 40.61 48.8 40.55 48.89 40.49C49 40.41 49.11 40.34 49.22 40.26C49.25 40.23 49.3 40.2 49.33 40.17L49.33 44.93ZM49.33 22.23C49.33 24.36 43.27 26.73 35.17 26.73C27.06 26.73 21 24.36 21 22.23C21 22.13 21.03 22.02 21.06 21.91C21.09 21.8 21.13 21.69 21.2 21.58C21.2 21.57 21.21 21.57 21.21 21.56C21.49 21.1 22.05 20.6 22.91 20.11C22.94 20.09 22.98 20.07 23.02 20.05C23.17 19.97 23.32 19.89 23.49 19.82C23.68 19.73 23.87 19.64 24.08 19.55C24.12 19.53 24.17 19.52 24.21 19.5C25.18 19.11 26.34 18.77 27.66 18.49C28.07 18.4 28.49 18.32 28.92 18.25C29.03 18.23 29.14 18.21 29.26 18.19C32.99 17.61 37.34 17.61 41.07 18.19C41.19 18.21 41.3 18.23 41.42 18.25C41.85 18.32 42.26 18.4 42.67 18.49C46.73 19.35 49.33 20.85 49.33 22.23ZM49.33 14.72C49.33 15.92 48.36 16.9 47.16 16.9L43.3 16.9C43.25 16.89 43.2 16.88 43.15 16.87C42.6 16.75 42.04 16.65 41.47 16.55C41.41 16.55 41.36 16.54 41.3 16.53C39.33 16.22 37.23 16.06 35.17 16.06C33.1 16.06 31 16.22 29.03 16.53C28.98 16.54 28.92 16.55 28.86 16.55C28.29 16.65 27.73 16.75 27.18 16.87C27.13 16.88 27.08 16.89 27.03 16.9L4.84 16.9C3.64 16.9 2.67 15.92 2.67 14.72L2.67 4.86C2.67 3.66 3.64 2.68 4.84 2.68L47.16 2.68C48.36 2.68 49.33 3.66 49.33 4.86L49.33 14.72Z" />
			</g>
		</g>
	</g>
</svg>